REM DIRINDEX 1\2\4\8,1\2\4\9,1\2\4\10,1\2\5\11,1\2\5\12,1\2\5\13,1\2\5\14,1\2\5\15,1\3\6\16,1\3\6\17,1\3\6\18,1\3\7\19,1\3\7\20,1\3\7\21,1\3\7\22,1\3\7\23
REM DIRNAME "folder01","folder02","folder03","folder04","folder05","folder06","folder07","folder08","folder09","folder10","folder11","folder12","folder13","folder14","folder15","folder16","folder17","folder18","folder19","folder20","folder21","folder22","folder23"
TITLE ""
FILE "LR_black_phrase_E_A04.mp3" MP3
  TRACK 01 AUDIO
    TITLE "0:"
    INDEX 01 00:00:00
  TRACK 02 AUDIO
    TITLE "16:cjc171_08271"
    INDEX 01 00:00:12
  TRACK 03 AUDIO
    TITLE "0:"
    INDEX 01 00:01:22
  TRACK 04 AUDIO
    TITLE "17:cjc171_08272"
    INDEX 01 00:01:49
  TRACK 05 AUDIO
    TITLE "0:"
    INDEX 01 00:04:24
  TRACK 06 AUDIO
    TITLE "18:cjc171_08273"
    INDEX 01 00:05:06
  TRACK 07 AUDIO
    TITLE "0:"
    INDEX 01 00:07:53
  TRACK 08 AUDIO
    TITLE "16:cjc171_08274"
    INDEX 01 00:08:59
  TRACK 09 AUDIO
    TITLE "0:"
    INDEX 01 00:10:05
  TRACK 10 AUDIO
    TITLE "17:cjc171_08275"
    INDEX 01 00:10:32
  TRACK 11 AUDIO
    TITLE "0:"
    INDEX 01 00:12:62
  TRACK 12 AUDIO
    TITLE "18:cjc171_08276"
    INDEX 01 00:13:42
  TRACK 13 AUDIO
    TITLE "0:"
    INDEX 01 00:15:71
  TRACK 14 AUDIO
    TITLE "16:cjc171_08277"
    INDEX 01 00:17:03
  TRACK 15 AUDIO
    TITLE "0:"
    INDEX 01 00:18:22
  TRACK 16 AUDIO
    TITLE "17:cjc171_08278"
    INDEX 01 00:18:53
  TRACK 17 AUDIO
    TITLE "0:"
    INDEX 01 00:21:32
  TRACK 18 AUDIO
    TITLE "18:cjc171_08279"
    INDEX 01 00:22:14
  TRACK 19 AUDIO
    TITLE "0:"
    INDEX 01 00:24:68
  TRACK 20 AUDIO
    TITLE "16:cjc171_08280"
    INDEX 01 00:25:63
  TRACK 21 AUDIO
    TITLE "0:"
    INDEX 01 00:27:33
  TRACK 22 AUDIO
    TITLE "17:cjc171_08281"
    INDEX 01 00:27:52
  TRACK 23 AUDIO
    TITLE "0:"
    INDEX 01 00:30:27
  TRACK 24 AUDIO
    TITLE "18:cjc171_08282"
    INDEX 01 00:30:72
  TRACK 25 AUDIO
    TITLE "0:"
    INDEX 01 00:33:47
  TRACK 26 AUDIO
    TITLE "16:cjc171_08283"
    INDEX 01 00:34:43
  TRACK 27 AUDIO
    TITLE "0:"
    INDEX 01 00:35:64
  TRACK 28 AUDIO
    TITLE "17:cjc171_08284"
    INDEX 01 00:36:06
  TRACK 29 AUDIO
    TITLE "0:"
    INDEX 01 00:38:52
  TRACK 30 AUDIO
    TITLE "18:cjc171_08285"
    INDEX 01 00:39:22
  TRACK 31 AUDIO
    TITLE "0:"
    INDEX 01 00:41:68
  TRACK 32 AUDIO
    TITLE "16:cjc171_08286"
    INDEX 01 00:42:67
  TRACK 33 AUDIO
    TITLE "0:"
    INDEX 01 00:44:15
  TRACK 34 AUDIO
    TITLE "17:cjc171_08287"
    INDEX 01 00:44:43
  TRACK 35 AUDIO
    TITLE "0:"
    INDEX 01 00:46:40
  TRACK 36 AUDIO
    TITLE "18:cjc171_08288"
    INDEX 01 00:47:10
  TRACK 37 AUDIO
    TITLE "0:"
    INDEX 01 00:49:09
  TRACK 38 AUDIO
    TITLE "16:cjc171_08289"
    INDEX 01 00:50:10
  TRACK 39 AUDIO
    TITLE "0:"
    INDEX 01 00:51:29
  TRACK 40 AUDIO
    TITLE "17:cjc171_08290"
    INDEX 01 00:51:61
  TRACK 41 AUDIO
    TITLE "0:"
    INDEX 01 00:54:53
  TRACK 42 AUDIO
    TITLE "18:cjc171_08291"
    INDEX 01 00:55:35
  TRACK 43 AUDIO
    TITLE "0:"
    INDEX 01 00:58:29
  TRACK 44 AUDIO
    TITLE "16:cjc171_08292"
    INDEX 01 00:59:35
  TRACK 45 AUDIO
    TITLE "0:"
    INDEX 01 01:00:54
  TRACK 46 AUDIO
    TITLE "17:cjc171_08293"
    INDEX 01 01:01:10
  TRACK 47 AUDIO
    TITLE "0:"
    INDEX 01 01:03:50
  TRACK 48 AUDIO
    TITLE "18:cjc171_08294"
    INDEX 01 01:04:30
  TRACK 49 AUDIO
    TITLE "0:"
    INDEX 01 01:06:70
  TRACK 50 AUDIO
    TITLE "16:cjc171_08295"
    INDEX 01 01:07:75
  TRACK 51 AUDIO
    TITLE "0:"
    INDEX 01 01:09:27
  TRACK 52 AUDIO
    TITLE "17:cjc171_08296"
    INDEX 01 01:09:51
  TRACK 53 AUDIO
    TITLE "0:"
    INDEX 01 01:11:52
  TRACK 54 AUDIO
    TITLE "18:cjc171_08297"
    INDEX 01 01:12:25
  TRACK 55 AUDIO
    TITLE "0:"
    INDEX 01 01:14:24
  TRACK 56 AUDIO
    TITLE "16:cjc171_08298"
    INDEX 01 01:15:26
  TRACK 57 AUDIO
    TITLE "0:"
    INDEX 01 01:16:29
  TRACK 58 AUDIO
    TITLE "17:cjc171_08299"
    INDEX 01 01:16:51
  TRACK 59 AUDIO
    TITLE "0:"
    INDEX 01 01:19:71
  TRACK 60 AUDIO
    TITLE "18:cjc171_08300"
    INDEX 01 01:20:41
  TRACK 61 AUDIO
    TITLE "0:"
    INDEX 01 01:23:61
  TRACK 62 AUDIO
    TITLE "16:cjc171_08301"
    INDEX 01 01:24:60
  TRACK 63 AUDIO
    TITLE "0:"
    INDEX 01 01:26:06
  TRACK 64 AUDIO
    TITLE "17:cjc171_08302"
    INDEX 01 01:26:28
  TRACK 65 AUDIO
    TITLE "0:"
    INDEX 01 01:28:70
  TRACK 66 AUDIO
    TITLE "18:cjc171_08303"
    INDEX 01 01:29:40
  TRACK 67 AUDIO
    TITLE "0:"
    INDEX 01 01:32:07
  TRACK 68 AUDIO
    TITLE "16:cjc171_08304"
    INDEX 01 01:33:02
  TRACK 69 AUDIO
    TITLE "0:"
    INDEX 01 01:34:23
  TRACK 70 AUDIO
    TITLE "17:cjc171_08305"
    INDEX 01 01:34:43
  TRACK 71 AUDIO
    TITLE "0:"
    INDEX 01 01:36:36
  TRACK 72 AUDIO
    TITLE "18:cjc171_08306"
    INDEX 01 01:37:04
  TRACK 73 AUDIO
    TITLE "0:"
    INDEX 01 01:38:72
  TRACK 74 AUDIO
    TITLE "16:cjc171_08307"
    INDEX 01 01:39:71
  TRACK 75 AUDIO
    TITLE "0:"
    INDEX 01 01:41:11
  TRACK 76 AUDIO
    TITLE "17:cjc171_08308"
    INDEX 01 01:41:45
  TRACK 77 AUDIO
    TITLE "0:"
    INDEX 01 01:44:10
  TRACK 78 AUDIO
    TITLE "18:cjc171_08309"
    INDEX 01 01:44:65
  TRACK 79 AUDIO
    TITLE "0:"
    INDEX 01 01:47:32
  TRACK 80 AUDIO
    TITLE "16:cjc171_08310"
    INDEX 01 01:48:37
  TRACK 81 AUDIO
    TITLE "0:"
    INDEX 01 01:49:50
  TRACK 82 AUDIO
    TITLE "17:cjc171_08311"
    INDEX 01 01:50:06
  TRACK 83 AUDIO
    TITLE "0:"
    INDEX 01 01:52:33
  TRACK 84 AUDIO
    TITLE "18:cjc171_08312"
    INDEX 01 01:53:13
  TRACK 85 AUDIO
    TITLE "0:"
    INDEX 01 01:55:39
  TRACK 86 AUDIO
    TITLE "16:cjc171_08313"
    INDEX 01 01:56:44
  TRACK 87 AUDIO
    TITLE "0:"
    INDEX 01 01:58:04
  TRACK 88 AUDIO
    TITLE "17:cjc171_08314"
    INDEX 01 01:58:31
  TRACK 89 AUDIO
    TITLE "0:"
    INDEX 01 02:00:72
  TRACK 90 AUDIO
    TITLE "18:cjc171_08315"
    INDEX 01 02:01:49
  TRACK 91 AUDIO
    TITLE "0:"
    INDEX 01 02:04:14
  TRACK 92 AUDIO
    TITLE "16:cjc171_08316"
    INDEX 01 02:05:12
  TRACK 93 AUDIO
    TITLE "0:"
    INDEX 01 02:06:23
  TRACK 94 AUDIO
    TITLE "17:cjc171_08317"
    INDEX 01 02:06:45
  TRACK 95 AUDIO
    TITLE "0:"
    INDEX 01 02:09:69
  TRACK 96 AUDIO
    TITLE "18:cjc171_08318"
    INDEX 01 02:10:39
  TRACK 97 AUDIO
    TITLE "0:"
    INDEX 01 02:13:64
  TRACK 98 AUDIO
    TITLE "16:cjc171_08319"
    INDEX 01 02:14:62
  TRACK 99 AUDIO
    TITLE "0:"
    INDEX 01 02:16:20
  TRACK 100 AUDIO
    TITLE "17:cjc171_08320"
    INDEX 01 02:16:43
  TRACK 101 AUDIO
    TITLE "0:"
    INDEX 01 02:19:41
  TRACK 102 AUDIO
    TITLE "18:cjc171_08321"
    INDEX 01 02:20:10
  TRACK 103 AUDIO
    TITLE "0:"
    INDEX 01 02:23:08
  TRACK 104 AUDIO
    TITLE "16:cjc171_08322"
    INDEX 01 02:24:03
  TRACK 105 AUDIO
    TITLE "0:"
    INDEX 01 02:25:28
  TRACK 106 AUDIO
    TITLE "17:cjc171_08323"
    INDEX 01 02:25:50
  TRACK 107 AUDIO
    TITLE "0:"
    INDEX 01 02:27:68
  TRACK 108 AUDIO
    TITLE "18:cjc171_08324"
    INDEX 01 02:28:36
  TRACK 109 AUDIO
    TITLE "0:"
    INDEX 01 02:30:55
  TRACK 110 AUDIO
    TITLE "16:cjc171_08325"
    INDEX 01 02:31:54
  TRACK 111 AUDIO
    TITLE "0:"
    INDEX 01 02:32:72
  TRACK 112 AUDIO
    TITLE "17:cjc171_08326"
    INDEX 01 02:33:30
  TRACK 113 AUDIO
    TITLE "0:"
    INDEX 01 02:36:05
  TRACK 114 AUDIO
    TITLE "18:cjc171_08327"
    INDEX 01 02:36:60
  TRACK 115 AUDIO
    TITLE "0:"
    INDEX 01 02:39:32
  TRACK 116 AUDIO
    TITLE "16:cjc171_08328"
    INDEX 01 02:40:38
  TRACK 117 AUDIO
    TITLE "0:"
    INDEX 01 02:41:59
  TRACK 118 AUDIO
    TITLE "17:cjc171_08329"
    INDEX 01 02:42:13
  TRACK 119 AUDIO
    TITLE "0:"
    INDEX 01 02:45:25
  TRACK 120 AUDIO
    TITLE "18:cjc171_08330"
    INDEX 01 02:46:05
  TRACK 121 AUDIO
    TITLE "0:"
    INDEX 01 02:49:17
  TRACK 122 AUDIO
    TITLE "16:cjc171_08331"
    INDEX 01 02:50:22
  TRACK 123 AUDIO
    TITLE "0:"
    INDEX 01 02:51:36
  TRACK 124 AUDIO
    TITLE "17:cjc171_08332"
    INDEX 01 02:51:65
  TRACK 125 AUDIO
    TITLE "0:"
    INDEX 01 02:54:14
  TRACK 126 AUDIO
    TITLE "18:cjc171_08333"
    INDEX 01 02:54:69
  TRACK 127 AUDIO
    TITLE "0:"
    INDEX 01 02:57:21
  TRACK 128 AUDIO
    TITLE "16:cjc171_08334"
    INDEX 01 02:58:22
  TRACK 129 AUDIO
    TITLE "0:"
    INDEX 01 02:59:55
  TRACK 130 AUDIO
    TITLE "17:cjc171_08335"
    INDEX 01 03:00:05
  TRACK 131 AUDIO
    TITLE "0:"
    INDEX 01 03:02:59
  TRACK 132 AUDIO
    TITLE "18:cjc171_08336"
    INDEX 01 03:03:29
  TRACK 133 AUDIO
    TITLE "0:"
    INDEX 01 03:06:08
  TRACK 134 AUDIO
    TITLE "16:cjc171_08337"
    INDEX 01 03:07:07
  TRACK 135 AUDIO
    TITLE "0:"
    INDEX 01 03:08:26
  TRACK 136 AUDIO
    TITLE "17:cjc171_08338"
    INDEX 01 03:08:50
  TRACK 137 AUDIO
    TITLE "0:"
    INDEX 01 03:11:07
  TRACK 138 AUDIO
    TITLE "18:cjc171_08339"
    INDEX 01 03:11:54
  TRACK 139 AUDIO
    TITLE "0:"
    INDEX 01 03:14:11
  TRACK 140 AUDIO
    TITLE "16:cjc171_08340"
    INDEX 01 03:15:11
  TRACK 141 AUDIO
    TITLE "0:"
    INDEX 01 03:16:45
  TRACK 142 AUDIO
    TITLE "17:cjc171_08341"
    INDEX 01 03:16:73
  TRACK 143 AUDIO
    TITLE "0:"
    INDEX 01 03:19:75
  TRACK 144 AUDIO
    TITLE "18:cjc171_08342"
    INDEX 01 03:20:49
  TRACK 145 AUDIO
    TITLE "0:"
    INDEX 01 03:23:53
  TRACK 146 AUDIO
    TITLE "16:cjc171_08343"
    INDEX 01 03:24:49
  TRACK 147 AUDIO
    TITLE "0:"
    INDEX 01 03:25:70
  TRACK 148 AUDIO
    TITLE "17:cjc171_08344"
    INDEX 01 03:26:24
  TRACK 149 AUDIO
    TITLE "0:"
    INDEX 01 03:28:48
  TRACK 150 AUDIO
    TITLE "18:cjc171_08345"
    INDEX 01 03:29:26
  TRACK 151 AUDIO
    TITLE "0:"
    INDEX 01 03:31:51
  TRACK 152 AUDIO
    TITLE "16:cjc171_08346"
    INDEX 01 03:32:54
  TRACK 153 AUDIO
    TITLE "0:"
    INDEX 01 03:33:63
  TRACK 154 AUDIO
    TITLE "17:cjc171_08347"
    INDEX 01 03:34:20
  TRACK 155 AUDIO
    TITLE "0:"
    INDEX 01 03:36:03
  TRACK 156 AUDIO
    TITLE "18:cjc171_08348"
    INDEX 01 03:36:54
  TRACK 157 AUDIO
    TITLE "0:"
    INDEX 01 03:38:39
  TRACK 158 AUDIO
    TITLE "16:cjc171_08349"
    INDEX 01 03:39:42
  TRACK 159 AUDIO
    TITLE "0:"
    INDEX 01 03:41:02
  TRACK 160 AUDIO
    TITLE "17:cjc171_08350"
    INDEX 01 03:41:33
  TRACK 161 AUDIO
    TITLE "0:"
    INDEX 01 03:43:42
  TRACK 162 AUDIO
    TITLE "18:cjc171_08351"
    INDEX 01 03:44:22
  TRACK 163 AUDIO
    TITLE "0:"
    INDEX 01 03:46:31
  TRACK 164 AUDIO
    TITLE "16:cjc171_08352"
    INDEX 01 03:47:32
  TRACK 165 AUDIO
    TITLE "0:"
    INDEX 01 03:48:39
  TRACK 166 AUDIO
    TITLE "17:cjc171_08353"
    INDEX 01 03:48:65
  TRACK 167 AUDIO
    TITLE "0:"
    INDEX 01 03:51:61
  TRACK 168 AUDIO
    TITLE "18:cjc171_08354"
    INDEX 01 03:52:37
  TRACK 169 AUDIO
    TITLE "0:"
    INDEX 01 03:55:34
  TRACK 170 AUDIO
    TITLE "16:cjc171_08355"
    INDEX 01 03:56:33
  TRACK 171 AUDIO
    TITLE "0:"
    INDEX 01 03:57:48
  TRACK 172 AUDIO
    TITLE "17:cjc171_08356"
    INDEX 01 03:57:70
  TRACK 173 AUDIO
    TITLE "0:"
    INDEX 01 04:00:09
  TRACK 174 AUDIO
    TITLE "18:cjc171_08357"
    INDEX 01 04:00:54
  TRACK 175 AUDIO
    TITLE "0:"
    INDEX 01 04:02:69
  TRACK 176 AUDIO
    TITLE "16:cjc171_08358"
    INDEX 01 04:03:64
  TRACK 177 AUDIO
    TITLE "0:"
    INDEX 01 04:04:68
  TRACK 178 AUDIO
    TITLE "17:cjc171_08359"
    INDEX 01 04:05:14
  TRACK 179 AUDIO
    TITLE "0:"
    INDEX 01 04:06:67
  TRACK 180 AUDIO
    TITLE "18:cjc171_08360"
    INDEX 01 04:07:39
  TRACK 181 AUDIO
    TITLE "0:"
    INDEX 01 04:09:14
